<svg width="137" height="25" viewBox="0 0 137 25" fill="none" xmlns="http://www.w3.org/2000/svg">
<path d="M6.06772 21.875L7.76043 14.5573L2.08334 9.63543L9.58334 8.98439L12.5 2.08334L15.4167 8.98439L22.9167 9.63543L17.2396 14.5573L18.9323 21.875L12.5 17.9948L6.06772 21.875Z" fill="#1A1A1A"/>
<path d="M34.0677 21.875L35.7604 14.5573L30.0833 9.63543L37.5833 8.98439L40.5 2.08334L43.4167 8.98439L50.9167 9.63543L45.2396 14.5573L46.9323 21.875L40.5 17.9948L34.0677 21.875Z" fill="#1A1A1A"/>
<path d="M62.0677 21.875L63.7604 14.5573L58.0833 9.63543L65.5833 8.98439L68.5 2.08334L71.4167 8.98439L78.9167 9.63543L73.2396 14.5573L74.9323 21.875L68.5 17.9948L62.0677 21.875Z" fill="#1A1A1A"/>
<path d="M90.0677 21.875L91.7604 14.5573L86.0833 9.63543L93.5833 8.98439L96.5 2.08334L99.4167 8.98439L106.917 9.63543L101.24 14.5573L102.932 21.875L96.5 17.9948L90.0677 21.875Z" fill="#1A1A1A"/>
<path d="M126.495 9.37338L126.73 9.92807L127.33 9.9808L132.477 10.4271L128.584 13.8021L128.129 14.1956L128.265 14.7826L129.425 19.7982L125.017 17.139L124.5 16.8265L123.984 17.139L119.575 19.7982L120.735 14.7826L120.87 14.1956L120.415 13.8021L116.523 10.4271L121.67 9.9808L122.27 9.92807L122.504 9.37338L124.499 4.6517L126.495 9.37338Z" fill="white" stroke="#1A1A1A" stroke-width="2"/>
</svg>
