<svg width="137" height="25" viewBox="0 0 137 25" fill="none" xmlns="http://www.w3.org/2000/svg">
<path d="M6.06772 21.875L7.76043 14.5573L2.08334 9.63543L9.58334 8.98439L12.5 2.08334L15.4167 8.98439L22.9167 9.63543L17.2396 14.5573L18.9323 21.875L12.5 17.9948L6.06772 21.875Z" fill="#1A1A1A"/>
<path d="M34.0677 21.875L35.7604 14.5573L30.0833 9.63543L37.5833 8.98439L40.5 2.08334L43.4167 8.98439L50.9167 9.63543L45.2396 14.5573L46.9323 21.875L40.5 17.9948L34.0677 21.875Z" fill="#1A1A1A"/>
<path d="M62.0677 21.875L63.7604 14.5573L58.0833 9.63543L65.5833 8.98439L68.5 2.08334L71.4167 8.98439L78.9167 9.63543L73.2396 14.5573L74.9323 21.875L68.5 17.9948L62.0677 21.875Z" fill="#1A1A1A"/>
<path d="M98.4955 9.37338L98.7298 9.92807L99.3304 9.9808L104.477 10.4271L100.584 13.8021L100.129 14.1956L100.265 14.7826L101.425 19.7982L97.0169 17.139L96.5003 16.8265L95.9837 17.139L91.5746 19.7982L92.7347 14.7826L92.8705 14.1956L92.4154 13.8021L88.5228 10.4271L93.6703 9.9808L94.2699 9.92807L94.5042 9.37338L96.4994 4.6517L98.4955 9.37338Z" fill="white" stroke="#1A1A1A" stroke-width="2"/>
<path d="M126.495 9.37338L126.73 9.92807L127.33 9.9808L132.477 10.4271L128.584 13.8021L128.129 14.1956L128.265 14.7826L129.425 19.7982L125.017 17.139L124.5 16.8265L123.984 17.139L119.575 19.7982L120.735 14.7826L120.87 14.1956L120.415 13.8021L116.523 10.4271L121.67 9.9808L122.27 9.92807L122.504 9.37338L124.499 4.6517L126.495 9.37338Z" fill="white" stroke="#1A1A1A" stroke-width="2"/>
</svg>
